<svg width="26" height="25" viewBox="0 0 26 25" fill="none" xmlns="http://www.w3.org/2000/svg">
<path fill-rule="evenodd" clip-rule="evenodd" d="M7.63452 0.0270954C8.95697 -0.0338692 10.2445 0.0270954 13.6132 0.0270954C16.9819 0.0270954 17.2741 -0.0327402 18.5955 0.0270954C19.9168 0.086931 20.7956 0.718976 21.5848 1.02493C22.4112 1.33765 22.9576 1.39053 23.5777 2.02276C24.209 2.64257 24.263 3.18976 24.5741 4.01843C24.8808 4.80871 25.5097 5.69102 25.5706 7.01192C25.6315 8.33847 25.5706 9.62667 25.5706 12.9989C25.5706 16.3723 25.6303 16.6638 25.5706 17.9881C25.5108 19.309 24.8808 20.1913 24.5741 20.9816C24.263 21.8104 24.2082 22.3565 23.5777 22.9772C22.9576 23.6095 22.4112 23.6635 21.5848 23.9751C20.7956 24.2822 19.9145 24.9119 18.5955 24.9729C17.2719 25.0339 16.9819 24.9729 13.6132 24.9729C10.2445 24.9729 8.95697 25.0327 7.63452 24.9729C6.31545 24.9131 5.43436 24.2822 4.64518 23.9751C3.81757 23.6634 3.27215 23.6086 2.65228 22.9772C2.02136 22.3571 1.96735 21.8101 1.65583 20.9816C1.3503 20.1913 0.720262 19.309 0.659382 17.9881C0.598502 16.6615 0.659382 16.3712 0.659382 12.9989C0.659382 9.62554 0.599629 8.33508 0.659382 7.01192C0.719135 5.68877 1.3503 4.80871 1.65583 4.01843C1.96781 3.18985 2.02106 2.64292 2.65228 2.02276C3.27127 1.3911 3.81819 1.33703 4.64518 1.02493C5.43436 0.718976 6.31545 0.08806 7.63452 0.0270954ZM18.5955 2.02276C17.2877 1.96292 16.9244 2.02276 13.6132 2.02276C10.302 2.02276 8.94232 1.96292 7.63452 2.02276C6.42481 2.07808 6.07906 2.85012 5.64162 3.02059C5.06326 3.24639 5.07923 3.58377 4.64518 4.01843C4.23372 4.41927 3.84735 4.47693 3.64873 5.01626C3.47849 5.4543 2.70752 5.80053 2.65228 7.01192C2.59253 8.32153 2.65228 9.68312 2.65228 12.9989C2.65228 16.3147 2.59253 16.6785 2.65228 17.9881C2.70752 19.1995 3.47849 19.5457 3.64873 19.9837C3.84715 20.5223 4.23367 20.5808 4.64518 20.9816C5.04541 21.3937 5.10385 21.7807 5.64162 21.9794C6.07906 22.1499 6.42481 22.9219 7.63452 22.9772C8.94232 23.0371 10.3009 22.9772 13.6132 22.9772C16.9255 22.9772 17.2877 23.0371 18.5955 22.9772C19.8052 22.9219 20.1509 22.1499 20.5884 21.9794C21.1667 21.7536 21.1507 21.4162 21.5848 20.9816C21.9963 20.5808 22.3828 20.5223 22.5812 19.9837C22.7515 19.5457 23.5225 19.1995 23.5777 17.9881C23.6374 16.6785 23.5777 16.3147 23.5777 12.9989C23.5777 9.68312 23.6374 8.32153 23.5777 7.01192C23.5225 5.80053 22.7515 5.4543 22.5812 5.01626C22.3558 4.43709 22.0189 4.45308 21.5848 4.01843C21.1845 3.60643 21.1269 3.21953 20.5884 3.02059C20.1509 2.85012 19.8052 2.07808 18.5955 2.02276ZM11.6203 15.9924C12.5049 16.3612 13.6925 16.2701 14.6097 15.9924C15.5269 15.7147 16.0702 15.7924 16.6026 14.9946C17.1349 14.1968 17.6937 12.9559 17.599 12.0011C17.5043 11.0462 16.2848 10.6828 15.6061 10.0054C15.1735 9.57243 15.1856 9.21381 14.6097 9.00759C14.0337 8.80136 13.2255 7.94963 12.6168 8.00975C12.008 8.06988 11.1485 8.69266 10.6239 9.00759C10.0992 9.32252 9.96727 9.49613 9.62742 10.0054C9.28757 10.5147 8.72079 11.3952 8.63097 12.0011C8.54115 12.607 9.44998 13.4106 9.62742 13.9967C9.80486 14.5829 9.21677 14.5406 9.62742 14.9946C10.0381 15.4486 11.0553 15.7578 11.6203 15.9924ZM8.63097 8.00975C9.22289 7.41702 9.85049 7.33271 10.6239 7.01192C11.3972 6.69113 12.7761 6.01409 13.6132 6.01409C14.4503 6.01409 14.8327 6.69113 15.6061 7.01192C16.3795 7.33271 17.0071 7.41702 17.599 8.00975C18.1909 8.60249 18.2751 9.23097 18.5955 10.0054C18.9158 10.7799 19.5919 12.1607 19.5919 12.9989C19.5919 13.8372 18.9158 14.2201 18.5955 14.9946C18.2751 15.769 18.1909 16.3975 17.599 16.9902C16.4036 18.1873 15.3038 18.9859 13.6132 18.9859C11.9226 18.9859 9.8264 18.1873 8.63097 16.9902C7.43554 15.7932 6.63807 14.6919 6.63807 12.9989C6.63807 11.306 7.43554 9.20685 8.63097 8.00975ZM20.5884 7.01192C20.735 6.87336 21.5036 7.19674 21.5848 7.01192C21.666 6.8271 21.5819 6.21599 21.5848 6.01409C21.5877 5.81219 21.6606 5.20337 21.5848 5.01626C21.509 4.82914 20.7309 5.15904 20.5884 5.01626C20.4458 4.87347 20.7752 5.09217 20.5884 5.01626C20.4015 4.94035 19.7935 4.01548 19.5919 4.01843C19.3903 4.02137 19.7765 4.93492 19.5919 5.01626C19.4073 5.09759 18.7338 4.86937 18.5955 5.01626C18.3264 5.30192 18.5897 5.62142 18.5955 6.01409C18.6012 6.40676 18.3182 6.73424 18.5955 7.01192C18.8728 7.28961 19.1998 7.0062 19.5919 7.01192C19.984 7.01765 20.3031 7.2814 20.5884 7.01192Z" fill="#E9EAED"/>
</svg>
