<svg width="26" height="20" viewBox="0 0 26 20" fill="none" xmlns="http://www.w3.org/2000/svg">
<path d="M25.688 2.02736C24.7699 2.42642 23.729 2.90396 22.6921 3.02584C23.762 2.39789 24.3078 1.19466 24.6894 0.0303971C23.6843 0.616043 22.8407 1.80646 21.6935 2.02736C20.9221 1.21937 19.8112 0.210357 18.6977 0.0303971C17.5842 -0.149563 16.6967 0.506357 15.7019 1.02888C14.707 1.5514 14.1693 2.01701 13.7046 3.02584C13.24 4.03466 12.4482 4.94352 12.706 6.02127C10.6694 5.92096 8.53314 5.92732 6.71433 5.02279C4.89553 4.11827 4.00613 2.5811 2.71988 1.02888C2.28008 1.77308 1.72127 2.1069 1.72127 3.02584C1.72078 3.85308 2.32247 5.29164 2.71988 6.02127C3.11729 6.75091 3.01719 7.55881 3.7185 8.01823C2.90517 7.99285 2.43251 7.40759 1.72127 7.01975C1.72119 8.18 1.97096 9.11716 2.71988 10.0152C3.46881 10.9132 4.55637 11.7823 5.71572 12.0122C4.96122 12.2125 4.48632 12.1557 3.7185 12.0122C4.04559 13.0105 4.8577 14.3821 5.71572 15.0076C6.57374 15.633 7.64275 15.9868 8.71156 16.0061C6.8972 17.4032 4.0279 18.0064 1.72127 18.003C1.31267 18.0031 1.12846 18.0498 0.722656 18.003C3.06402 19.4798 5.92799 20.003 8.71156 20C18.1343 20 22.6921 12.6609 22.6921 6.02127C22.6921 5.80556 22.702 5.23851 22.6921 5.02279C23.6941 4.312 25.0007 3.0357 25.688 2.02736Z" fill="#E9EAED"/>
</svg>
