<svg width="16" height="16" viewBox="0 0 16 16" fill="none" xmlns="http://www.w3.org/2000/svg">
<path d="M8.36033 2.13938C8.736 1.80272 9.33333 2.06905 9.33333 2.57372V13.4264C9.33333 13.9311 8.736 14.1977 8.36033 13.8604L5.625 11.405C5.33444 11.1443 4.95776 11 4.56733 11H3C2.53587 11 2.09075 10.8157 1.76256 10.4875C1.43437 10.1593 1.25 9.71418 1.25 9.25005V6.75005C1.25 5.78338 2.03333 5.00005 3 5.00005H4.56733C4.95776 5.00007 5.33444 4.85584 5.625 4.59505L8.36033 2.13938ZM8.5 3.13405L6.18167 5.21505C5.7382 5.61316 5.16328 5.83337 4.56733 5.83338H3C2.75688 5.83338 2.52373 5.92996 2.35182 6.10187C2.17991 6.27378 2.08333 6.50693 2.08333 6.75005V9.25005C2.08333 9.49317 2.17991 9.72632 2.35182 9.89823C2.52373 10.0701 2.75688 10.1667 3 10.1667H4.56733C5.16328 10.1667 5.7382 10.3869 6.18167 10.785L8.5 12.866V3.13405Z" fill="#ADAAAA"/>
<path d="M12.1125 2.79872C12.1881 2.71814 12.2925 2.67084 12.4029 2.66722C12.5132 2.66359 12.6205 2.70394 12.7012 2.77939H12.7015L12.7049 2.78272L12.7112 2.78839C12.7412 2.81726 12.7703 2.84706 12.7985 2.87772C12.8552 2.93772 12.9332 3.02439 13.0259 3.13839C13.2791 3.45172 13.504 3.78692 13.6979 4.14005C14.1842 5.02005 14.6665 6.31772 14.6665 8.00005C14.6665 9.68239 14.1842 10.9804 13.6979 11.8601C13.504 12.2132 13.2791 12.5484 13.0259 12.8617C12.9326 12.9763 12.8342 13.0865 12.7309 13.1921C12.7242 13.1987 12.7176 13.2052 12.7109 13.2117L12.7049 13.2174L12.7029 13.2194L12.7019 13.2204L12.7752 13.1471L12.7012 13.2207C12.62 13.2923 12.5141 13.3294 12.406 13.3243C12.2979 13.3191 12.196 13.2721 12.122 13.1932C12.0479 13.1143 12.0074 13.0096 12.0092 12.9014C12.0109 12.7932 12.0547 12.6899 12.1312 12.6134V12.6127L12.1325 12.6117C12.1529 12.592 12.1728 12.5718 12.1922 12.5511C12.2359 12.5044 12.3009 12.4324 12.3799 12.3354C12.6017 12.0605 12.7987 11.7664 12.9685 11.4567C13.3992 10.6781 13.8332 9.51772 13.8332 8.00005C13.8332 6.48239 13.3992 5.32205 12.9685 4.54339C12.7987 4.23366 12.6017 3.93961 12.3799 3.66472C12.3049 3.57271 12.226 3.48407 12.1432 3.39905C12.1397 3.39548 12.1361 3.39192 12.1325 3.38839L12.1315 3.38739L12.1309 3.38672C12.0506 3.31108 12.0036 3.20673 12.0002 3.09651C11.9968 2.98629 12.0372 2.87921 12.1125 2.79872Z" fill="#ADAAAA"/>
<path d="M10.7779 4.80013C10.8152 4.76003 10.86 4.72765 10.9097 4.70485C10.9595 4.68206 11.0132 4.66929 11.0679 4.66727C11.1226 4.66526 11.1772 4.67405 11.2285 4.69313C11.2798 4.7122 11.3268 4.7412 11.3669 4.77847H11.3673L11.3679 4.77913L11.3696 4.7808L11.3743 4.78513L11.3883 4.79847C11.4568 4.86722 11.5224 4.93884 11.5849 5.01313C11.7066 5.1588 11.8669 5.3708 12.0266 5.64447C12.4455 6.35886 12.6664 7.17199 12.6666 8.00013C12.6666 9.00747 12.3456 9.8088 12.0266 10.3558C11.8666 10.6295 11.7066 10.8415 11.5846 10.9868C11.5221 11.0612 11.4565 11.133 11.3879 11.2018L11.3816 11.2081L11.3743 11.2151L11.3696 11.2195L11.3679 11.2211L11.3673 11.2218L11.3669 11.2221C11.2861 11.2975 11.1786 11.3377 11.0681 11.3338C10.9577 11.3299 10.8533 11.2823 10.7779 11.2015C10.7026 11.1206 10.6624 11.0131 10.6663 10.9027C10.6701 10.7922 10.7177 10.6878 10.7986 10.6125L10.7993 10.6118L10.8046 10.6068L10.8329 10.5778C10.8589 10.5511 10.8983 10.5085 10.9463 10.4511C11.0429 10.3358 11.1746 10.1625 11.3066 9.93614C11.6513 9.34915 11.8331 8.68083 11.8333 8.00013C11.8333 7.17413 11.5709 6.5168 11.3066 6.06413C11.1746 5.8378 11.0433 5.66447 10.9466 5.54947C10.9014 5.49557 10.854 5.44352 10.8046 5.39347L10.7989 5.38813H10.7993C10.7185 5.31289 10.6709 5.20868 10.6669 5.09838C10.6629 4.98808 10.7028 4.88069 10.7779 4.7998V4.80013Z" fill="#ADAAAA"/>
</svg>
